HIERARCHY
ROOT Hips
{
    OFFSET 0.000000 0.000000 0.000000
    CHANNELS 6 Xposition Yposition Zposition Zrotation Xrotation Yrotation
    JOINT Spine
    {
        OFFSET -0.000000 7.897928 0.000000
        CHANNELS 3 Zrotation Xrotation Yrotation
        JOINT Spine1
        {
            OFFSET -0.000000 22.881742 0.000000
            CHANNELS 3 Zrotation Xrotation Yrotation
            JOINT Neck
            {
                OFFSET -0.000000 22.787771 2.071616
                CHANNELS 3 Zrotation Xrotation Yrotation
                JOINT Head
                {
                    OFFSET -0.000000 13.484266 -1.926324
                    CHANNELS 3 Zrotation Xrotation Yrotation
                    End Site
                    {
                        OFFSET -0.000000 24.079046 0.000000
                    }
                }
            }
            JOINT LeftShoulder
            {
                OFFSET 3.854963 21.096247 -0.110468
                CHANNELS 3 Zrotation Xrotation Yrotation
                JOINT LeftArm
                {
                    OFFSET 10.572188 0.000000 0.000000
                    CHANNELS 3 Zrotation Xrotation Yrotation
                    JOINT LeftForeArm
                    {
                        OFFSET 34.932854 0.000000 0.000000
                        CHANNELS 3 Zrotation Xrotation Yrotation
                        JOINT LeftHand
                        {
                            OFFSET 23.279285 0.000000 0.000000
                            CHANNELS 3 Zrotation Xrotation Yrotation
                            End Site
                            {
                                OFFSET 14.447429 0.000000 0.000000
                            }
                        }
                    }
                }
            }
            JOINT RightShoulder
            {
                OFFSET -3.825334 21.096247 -0.110468
                CHANNELS 3 Zrotation Xrotation Yrotation
                JOINT RightArm
                {
                    OFFSET -10.572188 0.000000 0.000000
                    CHANNELS 3 Zrotation Xrotation Yrotation
                    JOINT RightForeArm
                    {
                        OFFSET -34.932854 0.000000 0.000000
                        CHANNELS 3 Zrotation Xrotation Yrotation
                        JOINT RightHand
                        {
                            OFFSET -23.279285 0.000000 0.000000
                            CHANNELS 3 Zrotation Xrotation Yrotation
                            End Site
                            {
                                OFFSET -14.447429 0.000000 0.000000
                            }
                        }
                    }
                }
            }
        }
    }
    JOINT LeftUpLeg
    {
        OFFSET 9.631618 0.000000 0.000000
        CHANNELS 3 Zrotation Xrotation Yrotation
        JOINT LeftLeg
        {
            OFFSET -0.000000 -35.385456 0.000000
            CHANNELS 3 Zrotation Xrotation Yrotation
            JOINT LeftFoot
            {
                OFFSET -0.000000 -43.284000 0.000000
                CHANNELS 3 Zrotation Xrotation Yrotation
                JOINT LeftToeBase
                {
                    OFFSET -0.000000 -6.260552 14.447429
                    CHANNELS 3 Zrotation Xrotation Yrotation
                    End Site
                    {
                        OFFSET -0.000000 0.000000 3.852648
                    }
                }
            }
        }
    }
    JOINT RightUpLeg
    {
        OFFSET -9.631618 0.000000 0.000000
        CHANNELS 3 Zrotation Xrotation Yrotation
        JOINT RightLeg
        {
            OFFSET -0.000000 -35.385456 0.000000
            CHANNELS 3 Zrotation Xrotation Yrotation
            JOINT RightFoot
            {
                OFFSET -0.000000 -43.284000 0.000000
                CHANNELS 3 Zrotation Xrotation Yrotation
                JOINT RightToeBase
                {
                    OFFSET -0.000000 -6.260552 14.447429
                    CHANNELS 3 Zrotation Xrotation Yrotation
                    End Site
                    {
                        OFFSET -0.000000 0.000000 3.852648
                    }
                }
            }
        }
    }
}
MOTION
Frames:    13
Frame Time:    0.008333
67.796928    130.741577    26.829470    -4.017032    -1.386846    87.968643    0.782953    -5.160748    -0.964654    1.641320    0.197173    -1.002782    -3.431804    13.160429    -6.557973    6.315787    7.808253    -6.257435    19.017031    0.850600    7.839354    -20.288929    8.285872    -2.805491    4.494327    -9.659654    -0.264593    -4.634003    -9.647895    -0.038257    -20.034313    -1.111452    5.712575    15.894996    -0.453947    -1.947340    -1.909568    -3.774829    -1.052125    -3.742722    -3.866532    2.275980    3.954279    -2.065634    7.200619    -3.283923    9.293776    -14.925696    6.106917    -12.057337    24.417559    0.000000    0.000000    0.000000    -1.523333    -9.018205    3.943496    4.357799    16.228931    6.497172    -5.983407    -10.298302    -7.364036    0.000000    0.000000    0.000000    
67.780014    130.740707    26.836443    -4.010653    -1.379235    87.995239    0.800611    -5.074768    -0.987246    1.582121    0.002337    -1.022786    -3.420462    13.347637    -6.560763    6.346110    7.722688    -6.259605    18.997723    0.939797    7.740579    -20.287855    8.319399    -2.730872    4.551108    -9.678469    -0.287755    -4.825923    -9.665127    -0.049771    -19.921068    -1.016178    5.822981    15.842512    -0.474569    -1.981179    -1.933912    -3.810431    -1.083868    -3.632711    -3.902053    2.318084    3.948887    -2.081217    7.187768    -3.270247    9.314545    -14.948996    6.107049    -12.077298    24.422592    0.000000    0.000000    0.000000    -1.520888    -9.028451    3.973682    4.360066    16.246178    6.476921    -6.003340    -10.303641    -7.391564    0.000000    0.000000    0.000000    
67.762360    130.740692    26.842659    -4.011879    -1.371471    88.014679    0.763387    -5.096444    -0.999980    1.633410    0.059620    -1.034802    -3.413193    13.380339    -6.539077    6.343879    7.524442    -6.227314    18.984251    0.915281    7.736913    -20.306126    8.363298    -2.717581    4.552086    -9.748965    -0.316179    -4.997218    -9.723098    -0.313495    -19.960968    -1.042897    5.787818    15.860040    -0.482606    -1.955766    -1.935243    -3.848290    -1.077165    -3.538057    -3.937158    2.294516    3.950496    -2.100237    7.167715    -3.282257    9.330470    -14.937890    6.074307    -12.105973    24.421431    0.000000    0.000000    0.000000    -1.522647    -9.048739    3.974551    4.364039    16.278490    6.461856    -6.037193    -10.327937    -7.406645    0.000000    0.000000    0.000000    
67.745171    130.740677    26.844418    -4.005222    -1.360034    88.030891    0.777886    -5.071851    -1.013463    1.580411    0.021502    -1.048219    -3.488076    13.631174    -6.589554    6.566276    7.158633    -6.247808    19.001011    0.947463    7.710146    -20.319532    8.356842    -2.698492    4.561443    -9.775621    -0.348789    -5.109546    -9.745540    -0.372872    -19.906330    -1.031969    5.808823    15.847027    -0.522064    -1.954314    -1.932868    -3.850780    -1.070780    -3.588228    -3.939978    2.276739    3.939173    -2.109685    7.141278    -3.279789    9.344214    -14.937757    6.043088    -12.145588    24.430908    0.000000    0.000000    0.000000    -1.533446    -9.061571    3.994482    4.353683    16.339783    6.454196    -6.028759    -10.386107    -7.413722    0.000000    0.000000    0.000000    
67.727364    130.742401    26.848995    -4.009928    -1.347894    88.053749    0.738773    -5.096112    -1.011953    1.605538    0.082009    -1.045991    -3.345062    13.330681    -6.564509    6.324454    7.513566    -6.255019    19.032997    0.919550    7.697912    -20.355635    8.392369    -2.722071    4.557763    -9.801410    -0.354185    -5.210280    -9.767467    -0.447466    -19.901243    -1.067731    5.729844    15.848421    -0.509269    -1.926169    -1.926745    -3.838979    -1.068823    -3.444765    -3.923767    2.227432    3.929293    -2.136580    7.127831    -3.277571    9.365034    -14.942333    6.034860    -12.167208    24.435522    0.000000    0.000000    0.000000    -1.545233    -9.075657    4.001381    4.358198    16.348133    6.427888    -6.030988    -10.413205    -7.414407    0.000000    0.000000    0.000000    
67.710304    130.746017    26.852312    -4.008796    -1.342151    88.071548    0.752890    -5.079555    -1.037199    1.572637    0.064437    -1.071488    -3.328103    13.316100    -6.557517    6.298114    7.509183    -6.249537    19.033878    0.924503    7.726196    -20.350670    8.425333    -2.728941    4.539609    -9.793551    -0.355490    -5.232471    -9.757021    -0.502991    -19.886219    -1.071821    5.756285    15.860363    -0.546300    -1.917531    -1.901834    -3.793516    -1.053174    -3.525081    -3.877282    2.159557    3.925961    -2.155588    7.119291    -3.268669    9.388773    -14.961811    6.004614    -12.215512    24.435919    0.000000    0.000000    0.000000    -1.576970    -9.036591    4.024927    4.406302    16.264717    6.392041    -6.064301    -10.421037    -7.424544    0.000000    0.000000    0.000000    
67.691078    130.749344    26.856289    -4.009440    -1.331819    88.084755    0.745292    -5.072646    -1.049671    1.565340    0.061393    -1.083551    -3.359414    13.223089    -6.592205    6.315330    7.679769    -6.290095    19.022842    0.921571    7.731105    -20.354462    8.458970    -2.730893    4.554611    -9.782413    -0.374541    -5.264864    -9.745276    -0.495801    -19.880518    -1.072542    5.759163    15.873550    -0.574998    -1.906678    -1.867334    -3.728926    -1.044326    -3.626012    -3.809005    1.997314    3.924236    -2.176363    7.111894    -3.267364    9.410979    -14.978660    5.988819    -12.262290    24.429832    0.000000    0.000000    0.000000    -1.558620    -9.094946    4.006911    4.379405    16.324015    6.365403    -6.142758    -10.424974    -7.419583    0.000000    0.000000    0.000000    
67.675919    130.753662    26.862072    -4.007660    -1.328531    88.094597    0.746303    -5.089988    -1.061244    1.550431    0.110002    -1.095886    -3.354822    13.177444    -6.585566    6.320844    7.677390    -6.281314    19.040436    0.909491    7.758433    -20.360067    8.433832    -2.764189    4.520104    -9.737623    -0.370246    -5.217062    -9.703918    -0.429851    -19.884537    -1.096699    5.747299    15.896322    -0.608254    -1.884833    -1.841839    -3.665534    -1.045228    -3.656834    -3.742995    1.904552    3.931652    -2.197369    7.105436    -3.273185    9.439336    -14.991594    5.967511    -12.294414    24.433607    0.000000    0.000000    0.000000    -1.556233    -9.095873    4.007128    4.365022    16.310772    6.387321    -6.095889    -10.426239    -7.426818    0.000000    0.000000    0.000000    
67.657875    130.755966    26.863617    -4.006409    -1.319056    88.108353    0.722217    -5.095665    -1.052804    1.564788    0.149755    -1.086992    -3.325959    13.127938    -6.616574    6.305900    7.669957    -6.313665    19.068045    0.876811    7.757636    -20.388514    8.437241    -2.802150    4.500446    -9.697223    -0.389389    -5.157398    -9.667644    -0.326714    -19.887486    -1.114473    5.672024    15.897035    -0.611145    -1.851985    -1.808433    -3.611376    -1.029248    -3.653031    -3.685747    1.826658    3.923134    -2.223570    7.083543    -3.266841    9.468494    -15.008236    5.920883    -12.327269    24.455780    0.000000    0.000000    0.000000    -1.568744    -9.098335    3.988281    4.377096    16.301771    6.345476    -6.120806    -10.407563    -7.406140    0.000000    0.000000    0.000000    
67.642715    130.758072    26.869488    -3.998912    -1.320125    88.108841    0.722499    -5.071992    -1.065495    1.567305    0.125983    -1.099267    -3.353167    13.109480    -6.608392    6.330664    7.697694    -6.303433    19.053005    0.872421    7.763432    -20.382339    8.421959    -2.789911    4.483394    -9.630699    -0.413262    -5.112310    -9.604429    -0.234819    -19.894487    -1.125657    5.703557    15.917544    -0.618093    -1.854194    -1.789196    -3.559011    -1.048130    -3.642356    -3.632346    1.796028    3.930817    -2.236883    7.091958    -3.268547    9.491024    -15.032198    5.938716    -12.324881    24.473331    0.000000    0.000000    0.000000    -1.565767    -9.096186    3.992759    4.380324    16.286963    6.335818    -6.121238    -10.387430    -7.387104    0.000000    0.000000    0.000000    
67.626282    130.759354    26.875341    -3.988372    -1.321068    88.115891    0.704140    -5.047987    -1.060602    1.580184    0.113040    -1.093214    -3.305003    13.111905    -6.623981    6.294044    7.671603    -6.322506    19.086937    0.852647    7.752723    -20.414007    8.398890    -2.814226    4.472888    -9.515490    -0.414094    -5.106248    -9.493279    -0.142505    -19.873764    -1.163936    5.684425    15.917609    -0.627014    -1.892308    -1.798431    -3.488050    -0.982722    -3.457506    -3.553707    1.668626    3.939117    -2.253798    7.082115    -3.267917    9.521471    -15.056598    5.918908    -12.338643    24.493845    0.000000    0.000000    0.000000    -1.633579    -9.097286    4.192692    4.557797    16.272058    6.331028    -6.211010    -10.345776    -7.588553    0.000000    0.000000    0.000000    
67.611511    130.757568    26.879877    -3.973665    -1.323892    88.108353    0.722545    -5.011486    -1.064092    1.547965    0.075163    -1.096745    -3.296689    13.115187    -6.622323    6.296675    7.686034    -6.321719    19.108377    0.849408    7.740252    -20.421610    8.378567    -2.792756    4.458348    -9.405400    -0.431121    -5.120865    -9.384540    -0.097530    -19.861753    -1.181617    5.704486    15.932923    -0.632874    -1.887772    -1.768983    -3.436245    -0.985833    -3.474316    -3.498779    1.563528    3.940722    -2.264112    7.074523    -3.261469    9.553199    -15.040964    5.973354    -12.333331    24.494350    0.000000    0.000000    0.000000    -1.626333    -9.079994    4.201128    4.571622    16.257351    6.277216    -6.218516    -10.353220    -7.574030    0.000000    0.000000    0.000000    
67.596527    130.754776    26.883587    -3.957266    -1.327032    88.104546    0.729575    -4.968682    -1.067135    1.524556    0.031231    -1.099261    -3.262705    13.109772    -6.614792    6.276969    7.710829    -6.317568    19.143307    0.839548    7.733088    -20.439623    8.360091    -2.786009    4.436959    -9.312220    -0.426733    -5.117763    -9.291486    -0.100273    -19.818747    -1.172598    5.725626    15.914100    -0.640910    -1.889652    -1.738711    -3.385522    -1.031642    -3.537903    -3.451486    1.632303    3.943702    -2.270022    7.058447    -3.264868    9.575081    -15.024292    5.973719    -12.344496    24.512094    0.000000    0.000000    0.000000    -1.619438    -9.067466    4.207667    4.545627    16.229427    6.344584    -6.190409    -10.334563    -7.577023    0.000000    0.000000    0.000000    
